<?xml version="1.0" standalone="no"?><!DOCTYPE svg PUBLIC "-//W3C//DTD SVG 1.1//EN" "http://www.w3.org/Graphics/SVG/1.1/DTD/svg11.dtd"><svg t="1732960510241" class="icon" viewBox="0 0 1024 1024" version="1.1" xmlns="http://www.w3.org/2000/svg" p-id="14344" xmlns:xlink="http://www.w3.org/1999/xlink" width="200" height="200"><path d="M720.896 794.624V778.24H303.104v16.384c0 114.688 94.208 208.896 208.896 208.896s208.896-94.208 208.896-208.896zM143.36 364.544c-8.192 135.168 53.248 258.048 159.744 331.776h417.792c98.304-69.632 159.744-184.32 159.744-307.2 0-221.184-188.416-393.216-413.696-368.64-172.032 20.48-311.296 167.936-323.584 344.064zM286.72 348.16c4.096-4.096 98.304-131.072 221.184-131.072 122.88 0 221.184 126.976 221.184 131.072 4.096 8.192 4.096 16.384 0 24.576-4.096 4.096-98.304 131.072-221.184 131.072-122.88 0-217.088-126.976-221.184-131.072-4.096-8.192-4.096-20.48 0-24.576z" p-id="14345" fill="#ff7b15"></path><path d="M577.536 409.6c40.96-53.248 4.096-126.976-61.44-131.072 4.096 20.48 0 45.056-16.384 61.44-16.384 20.48-40.96 32.768-65.536 32.768h-8.192c16.384 69.632 110.592 94.208 151.552 36.864z" p-id="14346" fill="#ff7b15"></path></svg>